<?xml version="1.0" encoding="UTF-8" standalone="no"?>
<!-- Created with Inkscape (http://www.inkscape.org/) -->

<svg
   xmlns:dc="http://purl.org/dc/elements/1.1/"
   xmlns:cc="http://creativecommons.org/ns#"
   xmlns:rdf="http://www.w3.org/1999/02/22-rdf-syntax-ns#"
   xmlns:svg="http://www.w3.org/2000/svg"
   xmlns="http://www.w3.org/2000/svg"
   xmlns:xlink="http://www.w3.org/1999/xlink"
   version="1.1"
   width="780"
   height="140"
   id="svg4020">
  <defs
     id="defs4022">
    <clipPath
       id="clipPath16">
      <path
         d="m 0,841.89 595.28,0 L 595.28,0 0,0 0,841.89 z"
         id="path18" />
    </clipPath>
    <clipPath
       id="clipPath104">
      <path
         d="m 241.923,776.318 c -3.376,-0.8 -5.896,-4.031 -5.86,-7.514 l 0,0 c 0,-0.059 0.006,-0.12 0.012,-0.18 l 0,0 c 0.017,-0.149 0.034,-0.29 -0.068,-0.453 l 0,0 0.041,-0.169 c 0.153,-0.633 0.307,-1.275 0.486,-1.932 l 0,0 c 0.141,-0.113 0.195,-0.272 0.252,-0.44 l 0,0 c 0.033,-0.095 0.065,-0.189 0.114,-0.277 l 0,0 c 1.357,-2.49 3.475,-3.864 6.294,-4.085 l 0,0 0.107,-0.011 c 0.052,-0.006 0.105,-0.013 0.157,-0.013 l 0,0 c 0.103,0 0.251,0.023 0.299,0.288 l 0,0 c -3.653,0.238 -6.385,2.9 -6.642,6.476 l 0,0 c -0.139,1.907 0.489,3.711 1.765,5.083 l 0,0 c 1.29,1.389 3.107,2.185 4.983,2.185 l 0,0 c 0.477,0 0.955,-0.052 1.432,-0.176 l 0,0 c 0.218,-0.186 0.474,-0.212 0.723,-0.236 l 0,0 c 0.186,-0.019 0.379,-0.038 0.552,-0.127 l 0,0 c 0.817,-0.389 1.442,-0.794 1.961,-1.275 l 0,0 c 0.027,-0.027 0.064,-0.052 0.103,-0.079 l 0,0 c 0.065,-0.043 0.131,-0.087 0.136,-0.14 l 0,0 c 0.003,-0.042 -0.033,-0.099 -0.106,-0.165 l 0,0 c -0.063,-0.064 -0.12,-0.097 -0.168,-0.097 l 0,0 c -0.065,0 -0.125,0.063 -0.236,0.183 l 0,0 c -0.768,0.767 -1.763,1.143 -2.792,1.533 l 0,0 -0.133,-0.023 -0.063,-0.077 -0.083,-0.126 0.798,-0.337 c 0.558,-0.226 1.086,-0.439 1.562,-0.951 l 0,0 c 0.149,-0.062 0.248,-0.14 0.324,-0.26 l 0,0 c 0.284,-0.194 0.679,-0.761 0.807,-0.962 l 0,0 c 1.237,-2.075 1.297,-4.113 0.177,-6.06 l 0,0 c -1.098,-1.91 -2.797,-2.92 -4.912,-2.92 l 0,0 c -0.16,0 -0.323,0.006 -0.489,0.017 l 0,0 c -2.36,0.154 -4.078,1.39 -4.97,3.573 l 0,0 c -0.972,2.347 -0.417,4.752 1.533,6.651 l 0,0 -0.092,0.258 -0.055,-0.046 c -0.986,-0.827 -1.634,-1.743 -1.979,-2.796 l 0,0 c -0.846,-2.549 -0.304,-4.845 1.566,-6.641 l 0,0 c 1.273,-1.218 2.714,-1.836 4.281,-1.836 l 0,0 c 0.758,0 1.545,0.149 2.338,0.441 l 0,0 c 1.884,0.702 3.301,2.169 3.889,4.023 l 0,0 c 0.595,1.878 0.273,3.923 -0.884,5.614 l 0,0 c -0.02,0.027 -0.048,0.055 -0.076,0.082 l 0,0 c -0.049,0.049 -0.1,0.099 -0.097,0.148 l 0,0 c 0.004,0.038 0.04,0.083 0.11,0.133 l 0,0 c 0.066,0.052 0.121,0.079 0.165,0.079 l 0,0 c 0.065,0 0.112,-0.059 0.23,-0.213 l 0,0 c 1.142,-1.531 1.554,-3.534 1.13,-5.498 l 0,0 c -0.43,-1.984 -1.652,-3.661 -3.378,-4.627 l 0,0 0.085,-0.156 c 0.297,0 0.526,0.151 0.747,0.297 l 0,0 0.084,0.055 c 1.704,1.089 2.876,2.778 3.3,4.757 l 0,0 c 0.427,1.988 0.048,4.022 -1.067,5.727 l 0,0 c -0.207,0.312 -0.618,0.844 -0.836,1.061 l 0,0 c -0.719,0.771 -1.628,1.399 -2.777,1.92 l 0,0 c -0.204,0.096 -0.417,0.14 -0.624,0.183 l 0,0 c -0.257,0.053 -0.499,0.103 -0.734,0.253 l 0,0 c -0.531,0.062 -1.011,0.093 -1.467,0.093 l 0,0 c -0.694,0 -1.333,-0.072 -1.955,-0.215"
         id="path106" />
    </clipPath>
    <linearGradient
       x1="0"
       y1="0"
       x2="1"
       y2="0"
       id="linearGradient112"
       gradientUnits="userSpaceOnUse"
       gradientTransform="matrix(15.546875,0,0,-15.546875,236.00732,768.88818)"
       spreadMethod="pad">
      <stop
         id="stop114"
         style="stop-color:#bf1b2c;stop-opacity:1"
         offset="0" />
      <stop
         id="stop116"
         style="stop-color:#00adef;stop-opacity:1"
         offset="0.321987" />
      <stop
         id="stop118"
         style="stop-color:#00adef;stop-opacity:1"
         offset="0.321987" />
      <stop
         id="stop120"
         style="stop-color:#cce310;stop-opacity:1"
         offset="0.501086" />
      <stop
         id="stop122"
         style="stop-color:#f68712;stop-opacity:1"
         offset="0.99795997" />
      <stop
         id="stop124"
         style="stop-color:#f68712;stop-opacity:1"
         offset="1" />
    </linearGradient>
    <clipPath
       id="clipPath132">
      <path
         d="m 0,841.89 595.28,0 L 595.28,0 0,0 0,841.89 z"
         id="path134" />
    </clipPath>
    <clipPath
       id="clipPath144">
      <path
         d="m 242.653,768.818 c 0,-0.559 0.453,-1.013 1.011,-1.013 l 0,0 c 0.559,0 1.013,0.454 1.013,1.013 l 0,0 c 0,0.559 -0.454,1.013 -1.013,1.013 l 0,0 c -0.558,0 -1.011,-0.454 -1.011,-1.013"
         id="path146" />
    </clipPath>
    <radialGradient
       cx="0"
       cy="0"
       r="1"
       fx="0"
       fy="0"
       id="radialGradient152"
       gradientUnits="userSpaceOnUse"
       gradientTransform="matrix(1.0126954,0,0,-1.0126954,243.66455,768.81836)"
       spreadMethod="pad">
      <stop
         id="stop154"
         style="stop-color:#bf1b2c;stop-opacity:1"
         offset="0" />
      <stop
         id="stop156"
         style="stop-color:#00adef;stop-opacity:1"
         offset="0.321987" />
      <stop
         id="stop158"
         style="stop-color:#00adef;stop-opacity:1"
         offset="0.321987" />
      <stop
         id="stop160"
         style="stop-color:#cce310;stop-opacity:1"
         offset="0.64094102" />
      <stop
         id="stop162"
         style="stop-color:#f68712;stop-opacity:1"
         offset="0.99795997" />
      <stop
         id="stop164"
         style="stop-color:#f68712;stop-opacity:1"
         offset="1" />
    </radialGradient>
    <linearGradient
       x1="0"
       y1="0"
       x2="1"
       y2="0"
       id="linearGradient4373"
       xlink:href="#linearGradient112"
       gradientUnits="userSpaceOnUse"
       gradientTransform="matrix(15.546875,0,0,-15.546875,236.00732,768.88818)"
       spreadMethod="pad" />
    <radialGradient
       cx="0"
       cy="0"
       r="1"
       fx="0"
       fy="0"
       id="radialGradient4375"
       xlink:href="#radialGradient152"
       gradientUnits="userSpaceOnUse"
       gradientTransform="matrix(1.0126954,0,0,-1.0126954,243.66455,768.81836)"
       spreadMethod="pad" />
    <linearGradient
       x1="0"
       y1="0"
       x2="1"
       y2="0"
       id="linearGradient3149"
       xlink:href="#linearGradient112"
       gradientUnits="userSpaceOnUse"
       gradientTransform="matrix(15.546875,0,0,-15.546875,236.00732,768.88818)"
       spreadMethod="pad" />
    <radialGradient
       cx="0"
       cy="0"
       r="1"
       fx="0"
       fy="0"
       id="radialGradient3151"
       xlink:href="#radialGradient152"
       gradientUnits="userSpaceOnUse"
       gradientTransform="matrix(1.0126954,0,0,-1.0126954,243.66455,768.81836)"
       spreadMethod="pad" />
    <linearGradient
       x1="0"
       y1="0"
       x2="1"
       y2="0"
       id="linearGradient3226"
       xlink:href="#linearGradient112"
       gradientUnits="userSpaceOnUse"
       gradientTransform="matrix(15.546875,0,0,-15.546875,236.00732,768.88818)"
       spreadMethod="pad" />
    <radialGradient
       cx="0"
       cy="0"
       r="1"
       fx="0"
       fy="0"
       id="radialGradient3228"
       xlink:href="#radialGradient152"
       gradientUnits="userSpaceOnUse"
       gradientTransform="matrix(1.0126954,0,0,-1.0126954,243.66455,768.81836)"
       spreadMethod="pad" />
  </defs>
  <metadata
     id="metadata4025">
    <rdf:RDF>
      <cc:Work
         rdf:about="">
        <dc:format>image/svg+xml</dc:format>
        <dc:type
           rdf:resource="http://purl.org/dc/dcmitype/StillImage" />
        <dc:title></dc:title>
      </cc:Work>
    </rdf:RDF>
  </metadata>
  <g
     transform="translate(0,-912.36218)"
     id="layer1">
    <g
       transform="matrix(3.4560997,0,0,-3.4560997,6.773935,3656.3295)"
       id="g12"
       style="fill:#ffffff;fill-opacity:1">
      <g
         clip-path="url(#clipPath16)"
         id="g14"
         style="fill:#ffffff;fill-opacity:1">
        <g
           transform="translate(55.251,772.9985)"
           id="g20"
           style="fill:#ffffff;fill-opacity:1">
          <path
             d="m 0,0 0,-4.939 c 0,-0.072 -0.023,-0.137 -0.071,-0.195 -0.047,-0.058 -0.124,-0.105 -0.233,-0.141 -0.109,-0.037 -0.255,-0.065 -0.44,-0.087 -0.184,-0.022 -0.414,-0.033 -0.689,-0.033 -0.282,0 -0.514,0.011 -0.694,0.033 -0.182,0.022 -0.328,0.05 -0.44,0.087 -0.112,0.036 -0.19,0.083 -0.234,0.141 -0.043,0.058 -0.065,0.123 -0.065,0.195 l 0,4.939 -3.842,7.652 c -0.138,0.268 -0.227,0.476 -0.266,0.625 -0.04,0.148 -0.018,0.26 0.065,0.336 0.083,0.076 0.237,0.123 0.461,0.141 0.224,0.018 0.536,0.027 0.934,0.027 0.332,0 0.598,-0.007 0.798,-0.021 0.198,-0.015 0.356,-0.042 0.472,-0.082 0.116,-0.039 0.201,-0.092 0.255,-0.157 0.054,-0.065 0.107,-0.148 0.157,-0.25 L -2.269,4.819 C -2.117,4.486 -1.967,4.136 -1.818,3.767 -1.67,3.397 -1.52,3.01 -1.368,2.605 l 0.022,0 c 0.138,0.391 0.279,0.771 0.423,1.14 0.145,0.369 0.286,0.72 0.423,1.053 l 1.542,3.43 C 1.078,8.344 1.124,8.436 1.178,8.505 1.232,8.573 1.313,8.629 1.422,8.673 1.53,8.716 1.679,8.745 1.867,8.76 2.055,8.774 2.305,8.781 2.616,8.781 3.028,8.781 3.349,8.772 3.577,8.754 3.805,8.736 3.96,8.689 4.043,8.613 4.126,8.537 4.146,8.423 4.103,8.271 4.06,8.119 3.973,7.913 3.842,7.652 L 0,0 z"
             id="path22"
             style="fill:#ffffff;fill-opacity:1;fill-rule:nonzero;stroke:none" />
        </g>
        <g
           transform="translate(64.1201,772.1519)"
           id="g24"
           style="fill:#ffffff;fill-opacity:1">
          <path
             d="m 0,0 -1.042,0 c -0.441,0 -0.818,-0.033 -1.129,-0.098 -0.311,-0.065 -0.564,-0.162 -0.76,-0.293 -0.195,-0.13 -0.338,-0.287 -0.428,-0.472 -0.091,-0.184 -0.136,-0.396 -0.136,-0.635 0,-0.405 0.128,-0.724 0.385,-0.955 0.257,-0.232 0.613,-0.347 1.069,-0.347 0.384,0 0.737,0.097 1.059,0.293 0.322,0.195 0.649,0.481 0.982,0.857 L 0,0 z M 2.681,-4.146 C 2.681,-4.248 2.645,-4.327 2.573,-4.385 2.5,-4.443 2.386,-4.484 2.23,-4.51 2.075,-4.535 1.845,-4.548 1.542,-4.548 c -0.326,0 -0.563,0.013 -0.711,0.038 -0.149,0.026 -0.254,0.067 -0.315,0.125 -0.062,0.058 -0.093,0.137 -0.093,0.239 l 0,0.77 c -0.398,-0.427 -0.852,-0.76 -1.362,-0.999 -0.51,-0.238 -1.076,-0.357 -1.699,-0.357 -0.513,0 -0.986,0.066 -1.416,0.2 -0.431,0.134 -0.803,0.333 -1.118,0.597 -0.315,0.264 -0.559,0.592 -0.733,0.982 -0.174,0.391 -0.261,0.847 -0.261,1.368 0,0.564 0.111,1.055 0.332,1.471 0.22,0.416 0.549,0.76 0.987,1.031 0.438,0.271 0.983,0.473 1.634,0.603 0.651,0.13 1.407,0.195 2.269,0.195 l 0.944,0 0,0.586 c 0,0.304 -0.031,0.57 -0.092,0.798 -0.062,0.228 -0.163,0.418 -0.304,0.57 -0.141,0.152 -0.33,0.264 -0.564,0.336 -0.236,0.073 -0.527,0.109 -0.874,0.109 -0.456,0 -0.863,-0.051 -1.222,-0.152 C -3.414,3.86 -3.73,3.749 -4.005,3.625 -4.28,3.502 -4.51,3.39 -4.694,3.289 -4.879,3.188 -5.029,3.137 -5.145,3.137 c -0.08,0 -0.15,0.025 -0.211,0.076 -0.062,0.051 -0.113,0.123 -0.153,0.217 -0.039,0.094 -0.07,0.21 -0.092,0.347 -0.022,0.138 -0.032,0.29 -0.032,0.456 0,0.225 0.017,0.402 0.054,0.532 0.036,0.131 0.104,0.248 0.206,0.353 0.102,0.105 0.279,0.221 0.532,0.347 0.253,0.127 0.55,0.244 0.89,0.353 0.34,0.109 0.711,0.197 1.113,0.266 0.401,0.069 0.816,0.103 1.242,0.103 0.76,0 1.409,-0.074 1.949,-0.222 C 0.892,5.816 1.335,5.588 1.683,5.281 2.03,4.973 2.283,4.577 2.442,4.092 2.602,3.607 2.681,3.032 2.681,2.366 l 0,-6.512 z"
             id="path26"
             style="fill:#ffffff;fill-opacity:1;fill-rule:nonzero;stroke:none" />
        </g>
        <g
           transform="translate(71.3716,768.0381)"
           id="g28"
           style="fill:#ffffff;fill-opacity:1">
          <path
             d="m 0,0 c 0,-0.072 -0.021,-0.136 -0.065,-0.19 -0.043,-0.054 -0.118,-0.1 -0.223,-0.136 -0.105,-0.036 -0.244,-0.063 -0.418,-0.081 -0.173,-0.018 -0.394,-0.027 -0.662,-0.027 -0.267,0 -0.488,0.009 -0.662,0.027 -0.174,0.018 -0.313,0.045 -0.418,0.081 -0.105,0.036 -0.179,0.082 -0.222,0.136 -0.044,0.054 -0.065,0.118 -0.065,0.19 l 0,14.274 c 0,0.072 0.021,0.137 0.065,0.195 0.043,0.058 0.117,0.107 0.222,0.147 0.105,0.039 0.244,0.07 0.418,0.092 0.174,0.021 0.395,0.033 0.662,0.033 0.268,0 0.489,-0.012 0.662,-0.033 0.174,-0.022 0.313,-0.053 0.418,-0.092 0.105,-0.04 0.18,-0.089 0.223,-0.147 C -0.021,14.411 0,14.346 0,14.274 L 0,0 z"
             id="path30"
             style="fill:#ffffff;fill-opacity:1;fill-rule:nonzero;stroke:none" />
        </g>
        <g
           transform="translate(75.9424,768.0381)"
           id="g32"
           style="fill:#ffffff;fill-opacity:1">
          <path
             d="m 0,0 c 0,-0.072 -0.021,-0.136 -0.065,-0.19 -0.043,-0.054 -0.118,-0.1 -0.223,-0.136 -0.105,-0.036 -0.244,-0.063 -0.418,-0.081 -0.173,-0.018 -0.394,-0.027 -0.662,-0.027 -0.267,0 -0.488,0.009 -0.662,0.027 -0.174,0.018 -0.313,0.045 -0.418,0.081 -0.105,0.036 -0.179,0.082 -0.222,0.136 -0.044,0.054 -0.065,0.118 -0.065,0.19 l 0,14.274 c 0,0.072 0.021,0.137 0.065,0.195 0.043,0.058 0.117,0.107 0.222,0.147 0.105,0.039 0.244,0.07 0.418,0.092 0.174,0.021 0.395,0.033 0.662,0.033 0.268,0 0.489,-0.012 0.662,-0.033 0.174,-0.022 0.313,-0.053 0.418,-0.092 0.105,-0.04 0.18,-0.089 0.223,-0.147 C -0.021,14.411 0,14.346 0,14.274 L 0,0 z"
             id="path34"
             style="fill:#ffffff;fill-opacity:1;fill-rule:nonzero;stroke:none" />
        </g>
        <g
           transform="translate(83.3462,772.1519)"
           id="g36"
           style="fill:#ffffff;fill-opacity:1">
          <path
             d="m 0,0 -1.042,0 c -0.441,0 -0.818,-0.033 -1.129,-0.098 -0.311,-0.065 -0.564,-0.162 -0.76,-0.293 -0.195,-0.13 -0.338,-0.287 -0.428,-0.472 -0.091,-0.184 -0.136,-0.396 -0.136,-0.635 0,-0.405 0.128,-0.724 0.385,-0.955 0.257,-0.232 0.613,-0.347 1.069,-0.347 0.384,0 0.737,0.097 1.059,0.293 0.322,0.195 0.649,0.481 0.982,0.857 L 0,0 z M 2.681,-4.146 C 2.681,-4.248 2.645,-4.327 2.573,-4.385 2.5,-4.443 2.386,-4.484 2.23,-4.51 2.075,-4.535 1.845,-4.548 1.542,-4.548 c -0.326,0 -0.563,0.013 -0.711,0.038 -0.149,0.026 -0.254,0.067 -0.315,0.125 -0.062,0.058 -0.093,0.137 -0.093,0.239 l 0,0.77 c -0.398,-0.427 -0.852,-0.76 -1.362,-0.999 -0.51,-0.238 -1.076,-0.357 -1.699,-0.357 -0.513,0 -0.986,0.066 -1.416,0.2 -0.431,0.134 -0.803,0.333 -1.118,0.597 -0.315,0.264 -0.559,0.592 -0.733,0.982 -0.174,0.391 -0.261,0.847 -0.261,1.368 0,0.564 0.111,1.055 0.332,1.471 0.22,0.416 0.549,0.76 0.987,1.031 0.438,0.271 0.983,0.473 1.634,0.603 0.651,0.13 1.407,0.195 2.269,0.195 l 0.944,0 0,0.586 c 0,0.304 -0.031,0.57 -0.092,0.798 -0.062,0.228 -0.163,0.418 -0.304,0.57 -0.141,0.152 -0.33,0.264 -0.564,0.336 -0.236,0.073 -0.527,0.109 -0.874,0.109 -0.456,0 -0.863,-0.051 -1.222,-0.152 C -3.414,3.86 -3.73,3.749 -4.005,3.625 -4.28,3.502 -4.51,3.39 -4.694,3.289 -4.879,3.188 -5.029,3.137 -5.145,3.137 c -0.08,0 -0.15,0.025 -0.211,0.076 -0.062,0.051 -0.113,0.123 -0.153,0.217 -0.039,0.094 -0.07,0.21 -0.092,0.347 -0.022,0.138 -0.032,0.29 -0.032,0.456 0,0.225 0.017,0.402 0.054,0.532 0.036,0.131 0.104,0.248 0.206,0.353 0.102,0.105 0.279,0.221 0.532,0.347 0.253,0.127 0.55,0.244 0.89,0.353 0.34,0.109 0.711,0.197 1.113,0.266 0.401,0.069 0.816,0.103 1.242,0.103 0.76,0 1.409,-0.074 1.949,-0.222 C 0.892,5.816 1.335,5.588 1.683,5.281 2.03,4.973 2.283,4.577 2.442,4.092 2.602,3.607 2.681,3.032 2.681,2.366 l 0,-6.512 z"
             id="path38"
             style="fill:#ffffff;fill-opacity:1;fill-rule:nonzero;stroke:none" />
        </g>
        <g
           transform="translate(91.1079,771.7178)"
           id="g40"
           style="fill:#ffffff;fill-opacity:1">
          <path
             d="m 0,0 c -0.007,-0.058 -0.029,-0.108 -0.065,-0.152 -0.037,-0.043 -0.091,-0.08 -0.163,-0.109 -0.072,-0.029 -0.161,-0.05 -0.266,-0.065 -0.105,-0.014 -0.234,-0.021 -0.385,-0.021 -0.16,0 -0.286,0.007 -0.38,0.021 -0.095,0.015 -0.168,0.036 -0.223,0.065 -0.054,0.029 -0.088,0.066 -0.103,0.109 -0.015,0.044 -0.015,0.094 0,0.152 l 1.867,10.355 c 0.022,0.094 0.054,0.174 0.098,0.239 0.043,0.065 0.108,0.117 0.195,0.157 0.087,0.04 0.196,0.069 0.326,0.087 0.13,0.018 0.289,0.027 0.477,0.027 0.196,0 0.355,-0.009 0.478,-0.027 0.123,-0.018 0.219,-0.048 0.288,-0.092 0.068,-0.043 0.11,-0.098 0.125,-0.163 0.014,-0.065 0.01,-0.141 -0.011,-0.228 L 0,0 z m -0.163,-2.355 c 0,-0.102 -0.011,-0.223 -0.032,-0.364 -0.022,-0.141 -0.053,-0.282 -0.093,-0.424 -0.04,-0.141 -0.087,-0.274 -0.141,-0.401 -0.054,-0.127 -0.121,-0.227 -0.2,-0.299 -0.102,-0.108 -0.232,-0.188 -0.392,-0.239 -0.159,-0.05 -0.365,-0.075 -0.618,-0.075 -0.188,0 -0.346,0.014 -0.472,0.043 -0.127,0.029 -0.224,0.071 -0.293,0.125 -0.069,0.054 -0.116,0.125 -0.141,0.212 -0.026,0.087 -0.038,0.184 -0.038,0.293 0,0.093 0.008,0.21 0.027,0.347 0.017,0.137 0.045,0.279 0.081,0.423 0.036,0.145 0.083,0.284 0.141,0.418 0.058,0.134 0.123,0.241 0.196,0.32 0.115,0.116 0.249,0.194 0.401,0.234 0.152,0.039 0.347,0.059 0.586,0.059 0.21,0 0.38,-0.016 0.51,-0.048 0.131,-0.033 0.23,-0.078 0.299,-0.136 0.069,-0.058 0.116,-0.13 0.141,-0.217 0.025,-0.087 0.038,-0.178 0.038,-0.271"
             id="path42"
             style="fill:#ffffff;fill-opacity:1;fill-rule:nonzero;stroke:none" />
        </g>
        <g
           transform="translate(106.6641,768.4395)"
           id="g44"
           style="fill:#ffffff;fill-opacity:1">
          <path
             d="m 0,0 c 0,-0.13 -0.007,-0.244 -0.021,-0.342 -0.015,-0.097 -0.041,-0.179 -0.077,-0.244 -0.036,-0.065 -0.077,-0.112 -0.124,-0.141 -0.048,-0.029 -0.1,-0.044 -0.158,-0.044 l -6.741,0 c -0.166,0 -0.323,0.057 -0.472,0.169 -0.148,0.112 -0.222,0.309 -0.222,0.591 l 0,12.527 c 0,0.282 0.074,0.479 0.222,0.591 0.149,0.112 0.306,0.168 0.472,0.168 l 6.665,0 c 0.058,0 0.111,-0.014 0.158,-0.043 0.047,-0.029 0.085,-0.076 0.114,-0.141 0.029,-0.065 0.052,-0.147 0.07,-0.244 0.018,-0.098 0.028,-0.22 0.028,-0.364 0,-0.13 -0.01,-0.244 -0.028,-0.342 -0.018,-0.098 -0.041,-0.177 -0.07,-0.239 -0.029,-0.061 -0.067,-0.107 -0.114,-0.135 -0.047,-0.029 -0.1,-0.044 -0.158,-0.044 l -5.492,0 0,-4.407 4.711,0 c 0.058,0 0.11,-0.016 0.157,-0.048 0.047,-0.033 0.087,-0.079 0.12,-0.136 0.032,-0.058 0.056,-0.138 0.07,-0.239 0.015,-0.101 0.022,-0.221 0.022,-0.358 0,-0.131 -0.007,-0.243 -0.022,-0.337 C -0.904,6.104 -0.928,6.028 -0.96,5.97 -0.993,5.912 -1.033,5.871 -1.08,5.845 -1.127,5.82 -1.179,5.808 -1.237,5.808 l -4.711,0 0,-5.026 5.568,0 c 0.058,0 0.11,-0.015 0.158,-0.044 C -0.175,0.709 -0.134,0.664 -0.098,0.603 -0.062,0.541 -0.036,0.461 -0.021,0.364 -0.007,0.266 0,0.145 0,0"
             id="path46"
             style="fill:#ffffff;fill-opacity:1;fill-rule:nonzero;stroke:none" />
        </g>
        <g
           transform="translate(116.0112,768.1465)"
           id="g48"
           style="fill:#ffffff;fill-opacity:1">
          <path
             d="m 0,0 c 0.058,-0.102 0.087,-0.187 0.087,-0.255 0,-0.069 -0.034,-0.125 -0.103,-0.168 -0.069,-0.044 -0.174,-0.075 -0.315,-0.093 -0.141,-0.018 -0.324,-0.026 -0.548,-0.026 -0.217,0 -0.389,0.005 -0.516,0.016 -0.126,0.01 -0.228,0.028 -0.304,0.054 -0.075,0.025 -0.134,0.058 -0.173,0.097 -0.04,0.04 -0.075,0.085 -0.104,0.136 L -4.32,3.636 -6.654,-0.239 c -0.029,-0.051 -0.063,-0.096 -0.103,-0.136 -0.04,-0.039 -0.097,-0.072 -0.174,-0.097 -0.075,-0.026 -0.175,-0.044 -0.298,-0.054 -0.123,-0.011 -0.286,-0.016 -0.488,-0.016 -0.21,0 -0.382,0.008 -0.516,0.026 -0.134,0.018 -0.232,0.049 -0.293,0.093 -0.062,0.043 -0.091,0.099 -0.087,0.168 0.004,0.068 0.038,0.153 0.103,0.255 l 3.039,4.765 -2.876,4.592 c -0.058,0.101 -0.089,0.186 -0.092,0.255 -0.004,0.069 0.028,0.126 0.097,0.174 0.069,0.047 0.174,0.077 0.315,0.092 0.141,0.014 0.327,0.021 0.559,0.021 0.21,0 0.378,-0.005 0.505,-0.016 0.127,-0.01 0.226,-0.027 0.298,-0.049 0.073,-0.021 0.127,-0.05 0.163,-0.086 0.036,-0.037 0.069,-0.08 0.098,-0.131 l 2.225,-3.636 2.258,3.636 c 0.029,0.044 0.061,0.083 0.098,0.12 0.036,0.036 0.085,0.067 0.146,0.092 0.061,0.025 0.148,0.044 0.26,0.054 0.113,0.011 0.267,0.016 0.462,0.016 0.21,0 0.382,-0.007 0.516,-0.021 C -0.306,9.863 -0.206,9.836 -0.141,9.796 -0.076,9.756 -0.047,9.7 -0.054,9.628 -0.062,9.556 -0.098,9.465 -0.163,9.357 L -3.018,4.819 0,0 z"
             id="path50"
             style="fill:#ffffff;fill-opacity:1;fill-rule:nonzero;stroke:none" />
        </g>
        <g
           transform="translate(124.479,772.7705)"
           id="g52"
           style="fill:#ffffff;fill-opacity:1">
          <path
             d="M 0,0 C 0,0.5 -0.039,0.982 -0.115,1.449 -0.191,1.916 -0.322,2.33 -0.508,2.692 -0.694,3.054 -0.943,3.343 -1.256,3.561 -1.569,3.777 -1.959,3.886 -2.425,3.886 -2.658,3.886 -2.887,3.852 -3.113,3.783 -3.338,3.714 -3.568,3.605 -3.801,3.458 -4.034,3.309 -4.278,3.114 -4.533,2.871 -4.788,2.628 -5.057,2.33 -5.341,1.976 l 0,-3.886 c 0.495,-0.601 0.965,-1.061 1.409,-1.379 0.444,-0.318 0.911,-0.478 1.398,-0.478 0.451,0 0.839,0.109 1.163,0.326 0.324,0.217 0.586,0.506 0.787,0.869 0.2,0.362 0.347,0.766 0.442,1.215 C -0.047,-0.908 0,-0.456 0,0 m 1.856,0.207 c 0,-0.854 -0.092,-1.622 -0.277,-2.302 -0.184,-0.68 -0.456,-1.257 -0.814,-1.731 -0.358,-0.474 -0.802,-0.84 -1.329,-1.096 -0.529,-0.257 -1.133,-0.386 -1.813,-0.386 -0.29,0 -0.558,0.029 -0.804,0.087 -0.246,0.058 -0.486,0.148 -0.721,0.271 -0.236,0.123 -0.469,0.279 -0.701,0.467 -0.231,0.188 -0.477,0.409 -0.738,0.662 l 0,-4.884 c 0,-0.058 -0.014,-0.109 -0.043,-0.152 -0.029,-0.044 -0.076,-0.08 -0.141,-0.109 -0.065,-0.029 -0.156,-0.05 -0.271,-0.065 -0.117,-0.014 -0.265,-0.022 -0.446,-0.022 -0.174,0 -0.318,0.008 -0.434,0.022 -0.116,0.015 -0.208,0.036 -0.277,0.065 -0.068,0.029 -0.115,0.065 -0.141,0.109 -0.025,0.043 -0.038,0.094 -0.038,0.152 l 0,13.644 c 0,0.065 0.011,0.118 0.033,0.157 0.021,0.04 0.065,0.074 0.13,0.104 0.065,0.029 0.148,0.049 0.25,0.059 0.101,0.011 0.224,0.016 0.369,0.016 0.152,0 0.277,-0.005 0.374,-0.016 0.098,-0.01 0.18,-0.03 0.245,-0.059 0.064,-0.03 0.11,-0.064 0.135,-0.104 0.026,-0.039 0.038,-0.092 0.038,-0.157 l 0,-1.314 c 0.297,0.305 0.582,0.568 0.858,0.793 0.275,0.224 0.552,0.411 0.83,0.559 0.279,0.148 0.564,0.26 0.858,0.336 0.293,0.077 0.602,0.114 0.928,0.114 0.709,0 1.313,-0.137 1.813,-0.412 C 0.228,4.74 0.635,4.364 0.95,3.886 1.264,3.409 1.494,2.853 1.639,2.22 1.784,1.586 1.856,0.916 1.856,0.207"
             id="path54"
             style="fill:#ffffff;fill-opacity:1;fill-rule:nonzero;stroke:none" />
        </g>
        <g
           transform="translate(133.8467,777.0688)"
           id="g56"
           style="fill:#ffffff;fill-opacity:1">
          <path
             d="m 0,0 c 0,-0.159 -0.003,-0.293 -0.011,-0.401 -0.007,-0.109 -0.021,-0.194 -0.043,-0.256 -0.022,-0.061 -0.049,-0.108 -0.082,-0.14 -0.032,-0.033 -0.077,-0.05 -0.135,-0.05 -0.058,0 -0.129,0.017 -0.212,0.05 -0.083,0.032 -0.177,0.065 -0.282,0.097 -0.105,0.033 -0.223,0.063 -0.353,0.093 -0.13,0.028 -0.271,0.043 -0.423,0.043 -0.181,0 -0.358,-0.037 -0.532,-0.109 -0.174,-0.072 -0.357,-0.192 -0.548,-0.358 -0.192,-0.167 -0.393,-0.387 -0.603,-0.662 -0.21,-0.275 -0.441,-0.612 -0.694,-1.01 l 0,-6.425 c 0,-0.059 -0.015,-0.107 -0.044,-0.147 -0.029,-0.04 -0.076,-0.074 -0.141,-0.103 -0.065,-0.029 -0.156,-0.051 -0.271,-0.065 -0.116,-0.015 -0.265,-0.022 -0.445,-0.022 -0.174,0 -0.319,0.007 -0.434,0.022 -0.116,0.014 -0.208,0.036 -0.277,0.065 -0.069,0.029 -0.116,0.063 -0.141,0.103 -0.026,0.04 -0.038,0.088 -0.038,0.147 l 0,9.769 c 0,0.057 0.01,0.107 0.032,0.146 0.022,0.04 0.065,0.076 0.131,0.109 0.065,0.032 0.148,0.054 0.249,0.065 0.101,0.011 0.235,0.016 0.402,0.016 0.159,0 0.291,-0.005 0.396,-0.016 0.105,-0.011 0.186,-0.033 0.244,-0.065 0.058,-0.033 0.1,-0.069 0.125,-0.109 0.025,-0.039 0.038,-0.089 0.038,-0.146 l 0,-1.422 c 0.268,0.39 0.519,0.709 0.755,0.955 0.234,0.246 0.457,0.439 0.667,0.58 0.21,0.142 0.418,0.24 0.624,0.294 0.206,0.054 0.414,0.081 0.624,0.081 0.094,0 0.201,-0.005 0.32,-0.016 0.12,-0.011 0.245,-0.031 0.375,-0.06 0.13,-0.029 0.248,-0.061 0.352,-0.097 C -0.27,0.919 -0.195,0.883 -0.152,0.847 -0.108,0.811 -0.08,0.776 -0.065,0.744 -0.05,0.711 -0.038,0.669 -0.027,0.619 -0.016,0.568 -0.009,0.494 -0.005,0.396 -0.001,0.299 0,0.167 0,0"
             id="path58"
             style="fill:#ffffff;fill-opacity:1;fill-rule:nonzero;stroke:none" />
        </g>
        <g
           transform="translate(141.2402,773.7803)"
           id="g60"
           style="fill:#ffffff;fill-opacity:1">
          <path
             d="m 0,0 c 0.021,0.94 -0.188,1.679 -0.628,2.214 -0.44,0.536 -1.094,0.804 -1.96,0.804 -0.445,0 -0.834,-0.084 -1.169,-0.25 C -4.092,2.601 -4.372,2.38 -4.598,2.105 -4.824,1.831 -4.999,1.51 -5.122,1.145 -5.246,0.779 -5.315,0.398 -5.33,0 L 0,0 z m 1.802,-0.532 c 0,-0.282 -0.071,-0.483 -0.213,-0.602 -0.142,-0.12 -0.303,-0.179 -0.485,-0.179 l -6.434,0 c 0,-0.543 0.055,-1.032 0.164,-1.466 0.109,-0.434 0.291,-0.807 0.545,-1.118 0.255,-0.311 0.585,-0.55 0.993,-0.716 0.407,-0.167 0.905,-0.25 1.494,-0.25 0.466,0 0.88,0.038 1.243,0.114 0.364,0.076 0.679,0.161 0.944,0.255 0.265,0.094 0.484,0.179 0.655,0.255 0.17,0.076 0.299,0.114 0.387,0.114 0.051,0 0.096,-0.013 0.136,-0.038 0.04,-0.025 0.071,-0.064 0.093,-0.114 0.022,-0.051 0.038,-0.121 0.049,-0.212 0.011,-0.09 0.016,-0.2 0.016,-0.331 0,-0.094 -0.003,-0.175 -0.011,-0.244 C 1.371,-5.133 1.362,-5.194 1.352,-5.249 1.34,-5.303 1.322,-5.352 1.297,-5.395 1.271,-5.438 1.239,-5.48 1.199,-5.52 1.16,-5.56 1.042,-5.625 0.847,-5.715 0.651,-5.806 0.398,-5.894 0.087,-5.981 c -0.312,-0.087 -0.671,-0.165 -1.08,-0.233 -0.409,-0.069 -0.845,-0.103 -1.308,-0.103 -0.803,0 -1.507,0.112 -2.112,0.336 -0.604,0.224 -1.112,0.557 -1.524,0.999 -0.413,0.441 -0.724,0.994 -0.934,1.66 -0.21,0.666 -0.315,1.44 -0.315,2.323 0,0.839 0.109,1.594 0.326,2.263 0.217,0.67 0.53,1.238 0.939,1.705 0.408,0.467 0.902,0.824 1.482,1.074 0.578,0.25 1.226,0.374 1.942,0.374 0.768,0 1.42,-0.123 1.959,-0.368 C 0.001,3.803 0.445,3.472 0.792,3.055 1.14,2.639 1.395,2.151 1.558,1.59 1.72,1.029 1.802,0.43 1.802,-0.207 l 0,-0.325 z"
             id="path62"
             style="fill:#ffffff;fill-opacity:1;fill-rule:nonzero;stroke:none" />
        </g>
        <g
           transform="translate(151.0098,770.5996)"
           id="g64"
           style="fill:#ffffff;fill-opacity:1">
          <path
             d="m 0,0 c 0,-0.499 -0.092,-0.944 -0.277,-1.335 -0.184,-0.391 -0.447,-0.72 -0.786,-0.988 -0.341,-0.268 -0.746,-0.47 -1.216,-0.608 -0.471,-0.137 -0.988,-0.206 -1.553,-0.206 -0.347,0 -0.678,0.027 -0.993,0.081 -0.315,0.055 -0.597,0.124 -0.846,0.207 -0.25,0.083 -0.462,0.17 -0.635,0.26 -0.174,0.09 -0.301,0.172 -0.381,0.244 -0.079,0.073 -0.137,0.174 -0.173,0.304 -0.036,0.131 -0.054,0.308 -0.054,0.532 0,0.138 0.007,0.254 0.021,0.348 0.015,0.094 0.033,0.17 0.055,0.227 0.022,0.059 0.052,0.1 0.092,0.125 0.04,0.026 0.085,0.038 0.136,0.038 0.079,0 0.197,-0.048 0.353,-0.146 0.155,-0.098 0.347,-0.205 0.575,-0.32 0.228,-0.116 0.497,-0.223 0.808,-0.321 0.312,-0.097 0.67,-0.146 1.075,-0.146 0.304,0 0.579,0.033 0.825,0.098 0.246,0.064 0.459,0.161 0.641,0.287 0.18,0.127 0.32,0.288 0.417,0.483 0.098,0.196 0.147,0.427 0.147,0.695 0,0.275 -0.071,0.506 -0.212,0.695 -0.141,0.188 -0.327,0.354 -0.559,0.499 -0.231,0.145 -0.492,0.273 -0.781,0.385 -0.29,0.112 -0.588,0.23 -0.896,0.353 -0.307,0.123 -0.608,0.262 -0.901,0.418 -0.293,0.156 -0.555,0.346 -0.787,0.57 -0.231,0.224 -0.418,0.492 -0.559,0.803 -0.141,0.311 -0.211,0.684 -0.211,1.118 0,0.383 0.074,0.751 0.222,1.102 0.148,0.351 0.371,0.658 0.668,0.923 0.296,0.264 0.667,0.475 1.112,0.634 0.445,0.16 0.965,0.239 1.558,0.239 0.261,0 0.521,-0.021 0.782,-0.065 0.26,-0.043 0.495,-0.097 0.705,-0.162 0.21,-0.066 0.389,-0.136 0.537,-0.212 C -0.942,7.083 -0.83,7.016 -0.754,6.958 -0.678,6.9 -0.628,6.849 -0.602,6.806 -0.577,6.763 -0.559,6.714 -0.548,6.659 -0.537,6.605 -0.526,6.538 -0.516,6.458 -0.504,6.379 -0.499,6.281 -0.499,6.166 -0.499,6.042 -0.504,5.936 -0.516,5.845 -0.526,5.755 -0.544,5.681 -0.57,5.623 -0.595,5.565 -0.626,5.523 -0.662,5.498 -0.698,5.473 -0.738,5.46 -0.781,5.46 -0.847,5.46 -0.94,5.5 -1.063,5.58 -1.187,5.659 -1.346,5.744 -1.541,5.834 -1.736,5.925 -1.966,6.01 -2.23,6.089 -2.495,6.169 -2.797,6.209 -3.137,6.209 -3.441,6.209 -3.708,6.174 -3.94,6.106 -4.172,6.037 -4.362,5.939 -4.51,5.812 -4.658,5.686 -4.771,5.536 -4.846,5.362 -4.922,5.188 -4.96,5 -4.96,4.798 c 0,-0.282 0.072,-0.52 0.217,-0.711 0.144,-0.192 0.332,-0.36 0.564,-0.505 C -3.947,3.438 -3.683,3.307 -3.387,3.191 -3.09,3.076 -2.788,2.956 -2.48,2.833 -2.173,2.71 -1.869,2.573 -1.568,2.421 -1.268,2.269 -1.002,2.084 -0.771,1.867 -0.539,1.65 -0.353,1.39 -0.211,1.085 -0.07,0.782 0,0.42 0,0"
             id="path66"
             style="fill:#ffffff;fill-opacity:1;fill-rule:nonzero;stroke:none" />
        </g>
        <g
           transform="translate(158.8149,770.5996)"
           id="g68"
           style="fill:#ffffff;fill-opacity:1">
          <path
             d="m 0,0 c 0,-0.499 -0.092,-0.944 -0.277,-1.335 -0.184,-0.391 -0.447,-0.72 -0.786,-0.988 -0.341,-0.268 -0.746,-0.47 -1.216,-0.608 -0.471,-0.137 -0.988,-0.206 -1.553,-0.206 -0.347,0 -0.678,0.027 -0.993,0.081 -0.315,0.055 -0.597,0.124 -0.846,0.207 -0.25,0.083 -0.462,0.17 -0.635,0.26 -0.174,0.09 -0.301,0.172 -0.381,0.244 -0.079,0.073 -0.137,0.174 -0.173,0.304 -0.036,0.131 -0.054,0.308 -0.054,0.532 0,0.138 0.007,0.254 0.021,0.348 0.015,0.094 0.033,0.17 0.055,0.227 0.022,0.059 0.052,0.1 0.092,0.125 0.04,0.026 0.085,0.038 0.136,0.038 0.079,0 0.197,-0.048 0.353,-0.146 0.155,-0.098 0.347,-0.205 0.575,-0.32 0.228,-0.116 0.497,-0.223 0.808,-0.321 0.312,-0.097 0.67,-0.146 1.075,-0.146 0.304,0 0.579,0.033 0.825,0.098 0.246,0.064 0.459,0.161 0.641,0.287 0.18,0.127 0.32,0.288 0.417,0.483 0.098,0.196 0.147,0.427 0.147,0.695 0,0.275 -0.071,0.506 -0.212,0.695 -0.141,0.188 -0.327,0.354 -0.559,0.499 -0.231,0.145 -0.492,0.273 -0.781,0.385 -0.29,0.112 -0.588,0.23 -0.896,0.353 -0.307,0.123 -0.608,0.262 -0.901,0.418 -0.293,0.156 -0.555,0.346 -0.787,0.57 -0.231,0.224 -0.418,0.492 -0.559,0.803 -0.141,0.311 -0.211,0.684 -0.211,1.118 0,0.383 0.074,0.751 0.222,1.102 0.148,0.351 0.371,0.658 0.668,0.923 0.296,0.264 0.667,0.475 1.112,0.634 0.445,0.16 0.965,0.239 1.558,0.239 0.261,0 0.521,-0.021 0.782,-0.065 0.26,-0.043 0.495,-0.097 0.705,-0.162 0.21,-0.066 0.389,-0.136 0.537,-0.212 C -0.942,7.083 -0.83,7.016 -0.754,6.958 -0.678,6.9 -0.628,6.849 -0.602,6.806 -0.577,6.763 -0.559,6.714 -0.548,6.659 -0.537,6.605 -0.526,6.538 -0.516,6.458 -0.504,6.379 -0.499,6.281 -0.499,6.166 -0.499,6.042 -0.504,5.936 -0.516,5.845 -0.526,5.755 -0.544,5.681 -0.57,5.623 -0.595,5.565 -0.626,5.523 -0.662,5.498 -0.698,5.473 -0.738,5.46 -0.781,5.46 -0.847,5.46 -0.94,5.5 -1.063,5.58 -1.187,5.659 -1.346,5.744 -1.541,5.834 -1.736,5.925 -1.966,6.01 -2.23,6.089 -2.495,6.169 -2.797,6.209 -3.137,6.209 -3.441,6.209 -3.708,6.174 -3.94,6.106 -4.172,6.037 -4.362,5.939 -4.51,5.812 -4.658,5.686 -4.771,5.536 -4.846,5.362 -4.922,5.188 -4.96,5 -4.96,4.798 c 0,-0.282 0.072,-0.52 0.217,-0.711 0.144,-0.192 0.332,-0.36 0.564,-0.505 C -3.947,3.438 -3.683,3.307 -3.387,3.191 -3.09,3.076 -2.788,2.956 -2.48,2.833 -2.173,2.71 -1.869,2.573 -1.568,2.421 -1.268,2.269 -1.002,2.084 -0.771,1.867 -0.539,1.65 -0.353,1.39 -0.211,1.085 -0.07,0.782 0,0.42 0,0"
             id="path70"
             style="fill:#ffffff;fill-opacity:1;fill-rule:nonzero;stroke:none" />
        </g>
        <g
           transform="translate(172.1138,768.4829)"
           id="g72"
           style="fill:#ffffff;fill-opacity:1">
          <path
             d="M 0,0 C 0,-0.145 -0.007,-0.266 -0.021,-0.363 -0.036,-0.461 -0.06,-0.544 -0.092,-0.613 -0.125,-0.682 -0.165,-0.732 -0.211,-0.765 -0.259,-0.798 -0.315,-0.814 -0.38,-0.814 l -6.209,0 c -0.166,0 -0.324,0.056 -0.472,0.168 -0.148,0.112 -0.222,0.31 -0.222,0.592 l 0,13.004 c 0,0.057 0.014,0.108 0.043,0.152 0.029,0.043 0.079,0.077 0.152,0.103 0.072,0.025 0.17,0.047 0.293,0.065 0.123,0.018 0.272,0.027 0.445,0.027 0.181,0 0.331,-0.009 0.451,-0.027 0.119,-0.018 0.215,-0.04 0.287,-0.065 0.072,-0.026 0.123,-0.06 0.152,-0.103 0.029,-0.044 0.043,-0.095 0.043,-0.152 l 0,-12.147 5.037,0 c 0.065,0 0.121,-0.016 0.169,-0.049 C -0.165,0.722 -0.125,0.675 -0.092,0.613 -0.06,0.552 -0.036,0.47 -0.021,0.369 -0.007,0.268 0,0.145 0,0"
             id="path74"
             style="fill:#ffffff;fill-opacity:1;fill-rule:nonzero;stroke:none" />
        </g>
        <g
           transform="translate(174.8716,767.9404)"
           id="g76"
           style="fill:#ffffff;fill-opacity:1">
          <path
             d="M 0,0 C 0,-0.058 -0.015,-0.107 -0.043,-0.146 -0.072,-0.187 -0.119,-0.221 -0.185,-0.25 -0.25,-0.279 -0.34,-0.3 -0.456,-0.315 -0.572,-0.329 -0.72,-0.336 -0.901,-0.336 c -0.174,0 -0.318,0.007 -0.434,0.021 -0.116,0.015 -0.208,0.036 -0.277,0.065 -0.069,0.029 -0.116,0.063 -0.141,0.104 -0.025,0.039 -0.038,0.088 -0.038,0.146 l 0,9.769 c 0,0.051 0.013,0.098 0.038,0.141 0.025,0.044 0.072,0.08 0.141,0.109 0.069,0.028 0.161,0.05 0.277,0.065 0.116,0.014 0.26,0.021 0.434,0.021 0.181,0 0.329,-0.007 0.445,-0.021 0.116,-0.015 0.206,-0.037 0.271,-0.065 C -0.119,9.99 -0.072,9.954 -0.043,9.91 -0.015,9.867 0,9.82 0,9.769 L 0,0 z m 0.207,13.069 c 0,-0.42 -0.081,-0.706 -0.239,-0.858 -0.16,-0.151 -0.453,-0.228 -0.88,-0.228 -0.42,0 -0.707,0.075 -0.862,0.223 -0.156,0.148 -0.234,0.429 -0.234,0.841 0,0.42 0.08,0.706 0.239,0.858 0.159,0.152 0.452,0.228 0.879,0.228 0.42,0 0.707,-0.075 0.863,-0.223 0.155,-0.148 0.234,-0.429 0.234,-0.841"
             id="path78"
             style="fill:#ffffff;fill-opacity:1;fill-rule:nonzero;stroke:none" />
        </g>
        <g
           transform="translate(191.7847,767.9404)"
           id="g80"
           style="fill:#ffffff;fill-opacity:1">
          <path
             d="M 0,0 C 0,-0.058 -0.015,-0.107 -0.043,-0.146 -0.073,-0.187 -0.12,-0.221 -0.185,-0.25 -0.25,-0.279 -0.34,-0.3 -0.456,-0.315 -0.572,-0.329 -0.717,-0.336 -0.89,-0.336 c -0.181,0 -0.33,0.007 -0.445,0.021 -0.116,0.015 -0.208,0.036 -0.277,0.065 -0.069,0.029 -0.118,0.063 -0.147,0.104 -0.029,0.039 -0.043,0.088 -0.043,0.146 l 0,5.937 c 0,0.413 -0.036,0.789 -0.109,1.129 -0.072,0.34 -0.188,0.633 -0.347,0.879 C -2.417,8.191 -2.62,8.38 -2.866,8.51 -3.112,8.64 -3.401,8.705 -3.734,8.705 -4.146,8.705 -4.561,8.546 -4.977,8.228 -5.393,7.909 -5.851,7.442 -6.35,6.828 L -6.35,0 c 0,-0.058 -0.015,-0.107 -0.044,-0.146 -0.028,-0.041 -0.077,-0.075 -0.146,-0.104 -0.069,-0.029 -0.161,-0.05 -0.277,-0.065 -0.116,-0.014 -0.26,-0.021 -0.434,-0.021 -0.166,0 -0.31,0.007 -0.429,0.021 -0.119,0.015 -0.214,0.036 -0.282,0.065 -0.069,0.029 -0.116,0.063 -0.141,0.104 -0.025,0.039 -0.038,0.088 -0.038,0.146 l 0,5.937 c 0,0.413 -0.04,0.789 -0.12,1.129 -0.079,0.34 -0.198,0.633 -0.358,0.879 -0.159,0.246 -0.36,0.435 -0.602,0.565 -0.243,0.13 -0.53,0.195 -0.863,0.195 -0.413,0 -0.829,-0.159 -1.249,-0.477 -0.419,-0.319 -0.875,-0.786 -1.367,-1.4 L -12.7,0 c 0,-0.058 -0.015,-0.107 -0.044,-0.146 -0.028,-0.041 -0.075,-0.075 -0.141,-0.104 -0.065,-0.029 -0.156,-0.05 -0.271,-0.065 -0.116,-0.014 -0.264,-0.021 -0.445,-0.021 -0.174,0 -0.318,0.007 -0.434,0.021 -0.116,0.015 -0.208,0.036 -0.277,0.065 -0.069,0.029 -0.116,0.063 -0.141,0.104 -0.026,0.039 -0.038,0.088 -0.038,0.146 l 0,9.769 c 0,0.058 0.011,0.107 0.033,0.147 0.021,0.039 0.064,0.076 0.13,0.108 0.065,0.033 0.148,0.055 0.249,0.065 0.101,0.011 0.235,0.016 0.402,0.016 0.159,0 0.291,-0.005 0.396,-0.016 0.105,-0.01 0.186,-0.032 0.244,-0.065 0.058,-0.032 0.1,-0.069 0.125,-0.108 0.025,-0.04 0.038,-0.089 0.038,-0.147 l 0,-1.291 c 0.55,0.614 1.084,1.065 1.602,1.351 0.517,0.286 1.04,0.428 1.568,0.428 0.405,0 0.768,-0.047 1.091,-0.141 0.321,-0.094 0.606,-0.226 0.852,-0.396 0.246,-0.17 0.456,-0.372 0.629,-0.608 0.174,-0.235 0.319,-0.497 0.435,-0.787 0.325,0.355 0.635,0.655 0.927,0.902 0.293,0.245 0.576,0.444 0.847,0.596 0.272,0.152 0.536,0.262 0.793,0.331 0.256,0.069 0.515,0.103 0.776,0.103 0.629,0 1.158,-0.11 1.584,-0.331 0.427,-0.22 0.773,-0.515 1.037,-0.884 C -0.469,8.673 -0.281,8.24 -0.168,7.745 -0.056,7.249 0,6.726 0,6.176 L 0,0 z"
             id="path82"
             style="fill:#ffffff;fill-opacity:1;fill-rule:nonzero;stroke:none" />
        </g>
        <g
           transform="translate(195.9531,767.9404)"
           id="g84"
           style="fill:#ffffff;fill-opacity:1">
          <path
             d="M 0,0 C 0,-0.058 -0.015,-0.107 -0.043,-0.146 -0.072,-0.187 -0.119,-0.221 -0.185,-0.25 -0.25,-0.279 -0.34,-0.3 -0.456,-0.315 -0.572,-0.329 -0.72,-0.336 -0.901,-0.336 c -0.174,0 -0.318,0.007 -0.434,0.021 -0.116,0.015 -0.208,0.036 -0.277,0.065 -0.069,0.029 -0.116,0.063 -0.141,0.104 -0.025,0.039 -0.038,0.088 -0.038,0.146 l 0,9.769 c 0,0.051 0.013,0.098 0.038,0.141 0.025,0.044 0.072,0.08 0.141,0.109 0.069,0.028 0.161,0.05 0.277,0.065 0.116,0.014 0.26,0.021 0.434,0.021 0.181,0 0.329,-0.007 0.445,-0.021 0.116,-0.015 0.206,-0.037 0.271,-0.065 C -0.119,9.99 -0.072,9.954 -0.043,9.91 -0.015,9.867 0,9.82 0,9.769 L 0,0 z m 0.207,13.069 c 0,-0.42 -0.081,-0.706 -0.239,-0.858 -0.16,-0.151 -0.453,-0.228 -0.88,-0.228 -0.42,0 -0.707,0.075 -0.862,0.223 -0.156,0.148 -0.234,0.429 -0.234,0.841 0,0.42 0.08,0.706 0.239,0.858 0.159,0.152 0.452,0.228 0.879,0.228 0.42,0 0.707,-0.075 0.863,-0.223 0.155,-0.148 0.234,-0.429 0.234,-0.841"
             id="path86"
             style="fill:#ffffff;fill-opacity:1;fill-rule:nonzero;stroke:none" />
        </g>
        <g
           transform="translate(203.4546,768.6567)"
           id="g88"
           style="fill:#ffffff;fill-opacity:1">
          <path
             d="m 0,0 c 0,-0.21 -0.015,-0.376 -0.043,-0.5 -0.029,-0.123 -0.073,-0.213 -0.131,-0.271 -0.057,-0.058 -0.144,-0.112 -0.26,-0.163 -0.116,-0.05 -0.248,-0.092 -0.397,-0.124 -0.148,-0.033 -0.305,-0.06 -0.472,-0.082 -0.166,-0.022 -0.332,-0.032 -0.499,-0.032 -0.507,0 -0.941,0.067 -1.302,0.2 -0.362,0.134 -0.659,0.337 -0.891,0.608 -0.231,0.272 -0.4,0.615 -0.504,1.031 -0.105,0.416 -0.158,0.907 -0.158,1.471 l 0,5.71 -1.367,0 c -0.109,0 -0.196,0.058 -0.261,0.173 -0.065,0.116 -0.097,0.305 -0.097,0.565 0,0.137 0.008,0.253 0.027,0.347 0.018,0.094 0.041,0.172 0.07,0.234 0.029,0.061 0.067,0.104 0.114,0.13 0.047,0.025 0.1,0.038 0.157,0.038 l 1.357,0 0,2.323 c 0,0.05 0.013,0.097 0.038,0.141 0.026,0.043 0.073,0.081 0.141,0.114 0.069,0.032 0.162,0.056 0.277,0.07 0.116,0.015 0.261,0.022 0.434,0.022 0.181,0 0.329,-0.007 0.446,-0.022 0.115,-0.014 0.206,-0.038 0.271,-0.07 0.065,-0.033 0.112,-0.071 0.141,-0.114 0.029,-0.044 0.043,-0.091 0.043,-0.141 l 0,-2.323 2.508,0 c 0.058,0 0.108,-0.013 0.152,-0.038 0.043,-0.026 0.081,-0.069 0.114,-0.13 C -0.06,9.105 -0.036,9.027 -0.021,8.933 -0.007,8.839 0,8.723 0,8.586 0,8.326 -0.033,8.137 -0.098,8.021 -0.163,7.906 -0.25,7.848 -0.358,7.848 l -2.508,0 0,-5.449 c 0,-0.673 0.1,-1.182 0.299,-1.525 0.199,-0.344 0.555,-0.516 1.069,-0.516 0.166,0 0.315,0.017 0.445,0.049 0.13,0.032 0.246,0.067 0.347,0.103 0.102,0.036 0.188,0.071 0.261,0.103 0.072,0.033 0.137,0.049 0.195,0.049 0.037,0 0.071,-0.009 0.104,-0.027 C -0.114,0.617 -0.089,0.583 -0.07,0.532 -0.053,0.481 -0.036,0.413 -0.021,0.326 -0.007,0.239 0,0.13 0,0"
             id="path90"
             style="fill:#ffffff;fill-opacity:1;fill-rule:nonzero;stroke:none" />
        </g>
        <g
           transform="translate(211.2275,773.7803)"
           id="g92"
           style="fill:#ffffff;fill-opacity:1">
          <path
             d="m 0,0 c 0.021,0.94 -0.188,1.679 -0.628,2.214 -0.44,0.536 -1.094,0.804 -1.96,0.804 -0.445,0 -0.834,-0.084 -1.169,-0.25 C -4.092,2.601 -4.372,2.38 -4.598,2.105 -4.824,1.831 -4.999,1.51 -5.122,1.145 -5.246,0.779 -5.315,0.398 -5.33,0 L 0,0 z m 1.802,-0.532 c 0,-0.282 -0.071,-0.483 -0.213,-0.602 -0.142,-0.12 -0.303,-0.179 -0.485,-0.179 l -6.434,0 c 0,-0.543 0.055,-1.032 0.164,-1.466 0.109,-0.434 0.291,-0.807 0.545,-1.118 0.255,-0.311 0.585,-0.55 0.993,-0.716 0.407,-0.167 0.905,-0.25 1.494,-0.25 0.466,0 0.88,0.038 1.243,0.114 0.364,0.076 0.679,0.161 0.944,0.255 0.265,0.094 0.484,0.179 0.655,0.255 0.17,0.076 0.299,0.114 0.387,0.114 0.051,0 0.096,-0.013 0.136,-0.038 0.04,-0.025 0.071,-0.064 0.093,-0.114 0.022,-0.051 0.038,-0.121 0.049,-0.212 0.011,-0.09 0.016,-0.2 0.016,-0.331 0,-0.094 -0.003,-0.175 -0.011,-0.244 C 1.371,-5.133 1.362,-5.194 1.352,-5.249 1.34,-5.303 1.322,-5.352 1.297,-5.395 1.271,-5.438 1.239,-5.48 1.199,-5.52 1.16,-5.56 1.042,-5.625 0.847,-5.715 0.651,-5.806 0.398,-5.894 0.087,-5.981 c -0.312,-0.087 -0.671,-0.165 -1.08,-0.233 -0.409,-0.069 -0.845,-0.103 -1.308,-0.103 -0.803,0 -1.507,0.112 -2.112,0.336 -0.604,0.224 -1.112,0.557 -1.524,0.999 -0.413,0.441 -0.724,0.994 -0.934,1.66 -0.21,0.666 -0.315,1.44 -0.315,2.323 0,0.839 0.109,1.594 0.326,2.263 0.217,0.67 0.53,1.238 0.939,1.705 0.408,0.467 0.902,0.824 1.482,1.074 0.578,0.25 1.226,0.374 1.942,0.374 0.768,0 1.42,-0.123 1.959,-0.368 C 0.001,3.803 0.445,3.472 0.792,3.055 1.14,2.639 1.395,2.151 1.558,1.59 1.72,1.029 1.802,0.43 1.802,-0.207 l 0,-0.325 z"
             id="path94"
             style="fill:#ffffff;fill-opacity:1;fill-rule:nonzero;stroke:none" />
        </g>
        <g
           transform="translate(221.4321,774.8115)"
           id="g96"
           style="fill:#ffffff;fill-opacity:1">
          <path
             d="M 0,0 C -0.485,0.6 -0.954,1.058 -1.406,1.373 -1.858,1.687 -2.331,1.845 -2.822,1.845 -3.278,1.845 -3.666,1.736 -3.984,1.52 -4.302,1.302 -4.561,1.017 -4.76,0.662 -4.959,0.307 -5.104,-0.094 -5.194,-0.543 -5.285,-0.992 -5.33,-1.448 -5.33,-1.911 c 0,-0.492 0.038,-0.973 0.114,-1.443 0.076,-0.471 0.208,-0.889 0.396,-1.254 0.189,-0.366 0.438,-0.659 0.749,-0.879 0.311,-0.221 0.702,-0.331 1.173,-0.331 0.238,0 0.468,0.032 0.689,0.097 0.221,0.066 0.447,0.174 0.678,0.326 0.232,0.152 0.474,0.349 0.728,0.592 0.253,0.242 0.521,0.54 0.803,0.895 L 0,0 z M 1.802,-6.871 C 1.802,-6.929 1.789,-6.98 1.764,-7.023 1.738,-7.066 1.695,-7.101 1.633,-7.126 1.572,-7.151 1.49,-7.171 1.389,-7.186 1.288,-7.2 1.165,-7.208 1.02,-7.208 c -0.152,0 -0.278,0.008 -0.38,0.022 -0.101,0.015 -0.184,0.035 -0.249,0.06 -0.066,0.025 -0.113,0.06 -0.141,0.103 -0.03,0.043 -0.044,0.094 -0.044,0.152 l 0,1.291 c -0.514,-0.557 -1.047,-0.991 -1.601,-1.302 -0.554,-0.311 -1.16,-0.467 -1.818,-0.467 -0.717,0 -1.328,0.14 -1.835,0.418 -0.506,0.279 -0.917,0.655 -1.232,1.129 -0.314,0.474 -0.544,1.031 -0.689,1.672 -0.145,0.64 -0.217,1.315 -0.217,2.024 0,0.839 0.09,1.597 0.271,2.274 0.181,0.677 0.449,1.254 0.804,1.731 0.354,0.478 0.794,0.845 1.319,1.102 0.524,0.257 1.13,0.385 1.817,0.385 0.572,0 1.095,-0.124 1.569,-0.374 C -0.932,2.762 -0.463,2.395 0,1.91 l 0,5.677 c 0,0.051 0.012,0.1 0.038,0.147 0.025,0.047 0.074,0.083 0.146,0.108 0.072,0.026 0.165,0.047 0.277,0.065 0.112,0.018 0.255,0.028 0.429,0.028 0.181,0 0.329,-0.01 0.445,-0.028 C 1.451,7.889 1.541,7.868 1.606,7.842 1.671,7.817 1.72,7.781 1.753,7.734 1.785,7.687 1.802,7.638 1.802,7.587 l 0,-14.458 z"
             id="path98"
             style="fill:#ffffff;fill-opacity:1;fill-rule:nonzero;stroke:none" />
        </g>
      </g>
    </g>
    <g
       transform="matrix(3.6956622,0,0,-3.6956622,-854.60841,3687.3324)"
       id="g3316">
      <g
         transform="translate(5.573222,-38.155135)"
         id="g100">
        <g
           clip-path="url(#clipPath104)"
           id="g102">
          <g
             id="g108">
            <g
               id="g110">
              <path
                 d="m 241.923,776.318 c -3.376,-0.8 -5.896,-4.031 -5.86,-7.514 l 0,0 c 0,-0.059 0.006,-0.12 0.012,-0.18 l 0,0 c 0.017,-0.149 0.034,-0.29 -0.068,-0.453 l 0,0 0.041,-0.169 c 0.153,-0.633 0.307,-1.275 0.486,-1.932 l 0,0 c 0.141,-0.113 0.195,-0.272 0.252,-0.44 l 0,0 c 0.033,-0.095 0.065,-0.189 0.114,-0.277 l 0,0 c 1.357,-2.49 3.475,-3.864 6.294,-4.085 l 0,0 0.107,-0.011 c 0.052,-0.006 0.105,-0.013 0.157,-0.013 l 0,0 c 0.103,0 0.251,0.023 0.299,0.288 l 0,0 c -3.653,0.238 -6.385,2.9 -6.642,6.476 l 0,0 c -0.139,1.907 0.489,3.711 1.765,5.083 l 0,0 c 1.29,1.389 3.107,2.185 4.983,2.185 l 0,0 c 0.477,0 0.955,-0.052 1.432,-0.176 l 0,0 c 0.218,-0.186 0.474,-0.212 0.723,-0.236 l 0,0 c 0.186,-0.019 0.379,-0.038 0.552,-0.127 l 0,0 c 0.817,-0.389 1.442,-0.794 1.961,-1.275 l 0,0 c 0.027,-0.027 0.064,-0.052 0.103,-0.079 l 0,0 c 0.065,-0.043 0.131,-0.087 0.136,-0.14 l 0,0 c 0.003,-0.042 -0.033,-0.099 -0.106,-0.165 l 0,0 c -0.063,-0.064 -0.12,-0.097 -0.168,-0.097 l 0,0 c -0.065,0 -0.125,0.063 -0.236,0.183 l 0,0 c -0.768,0.767 -1.763,1.143 -2.792,1.533 l 0,0 -0.133,-0.023 -0.063,-0.077 -0.083,-0.126 0.798,-0.337 c 0.558,-0.226 1.086,-0.439 1.562,-0.951 l 0,0 c 0.149,-0.062 0.248,-0.14 0.324,-0.26 l 0,0 c 0.284,-0.194 0.679,-0.761 0.807,-0.962 l 0,0 c 1.237,-2.075 1.297,-4.113 0.177,-6.06 l 0,0 c -1.098,-1.91 -2.797,-2.92 -4.912,-2.92 l 0,0 c -0.16,0 -0.323,0.006 -0.489,0.017 l 0,0 c -2.36,0.154 -4.078,1.39 -4.97,3.573 l 0,0 c -0.972,2.347 -0.417,4.752 1.533,6.651 l 0,0 -0.092,0.258 -0.055,-0.046 c -0.986,-0.827 -1.634,-1.743 -1.979,-2.796 l 0,0 c -0.846,-2.549 -0.304,-4.845 1.566,-6.641 l 0,0 c 1.273,-1.218 2.714,-1.836 4.281,-1.836 l 0,0 c 0.758,0 1.545,0.149 2.338,0.441 l 0,0 c 1.884,0.702 3.301,2.169 3.889,4.023 l 0,0 c 0.595,1.878 0.273,3.923 -0.884,5.614 l 0,0 c -0.02,0.027 -0.048,0.055 -0.076,0.082 l 0,0 c -0.049,0.049 -0.1,0.099 -0.097,0.148 l 0,0 c 0.004,0.038 0.04,0.083 0.11,0.133 l 0,0 c 0.066,0.052 0.121,0.079 0.165,0.079 l 0,0 c 0.065,0 0.112,-0.059 0.23,-0.213 l 0,0 c 1.142,-1.531 1.554,-3.534 1.13,-5.498 l 0,0 c -0.43,-1.984 -1.652,-3.661 -3.378,-4.627 l 0,0 0.085,-0.156 c 0.297,0 0.526,0.151 0.747,0.297 l 0,0 0.084,0.055 c 1.704,1.089 2.876,2.778 3.3,4.757 l 0,0 c 0.427,1.988 0.048,4.022 -1.067,5.727 l 0,0 c -0.207,0.312 -0.618,0.844 -0.836,1.061 l 0,0 c -0.719,0.771 -1.628,1.399 -2.777,1.92 l 0,0 c -0.204,0.096 -0.417,0.14 -0.624,0.183 l 0,0 c -0.257,0.053 -0.499,0.103 -0.734,0.253 l 0,0 c -0.531,0.062 -1.011,0.093 -1.467,0.093 l 0,0 c -0.694,0 -1.333,-0.072 -1.955,-0.215"
                 id="path126"
                 style="fill:url(#linearGradient3226);stroke:none" />
            </g>
          </g>
        </g>
      </g>
      <g
         transform="translate(5.573222,-38.155135)"
         id="g128">
        <g
           clip-path="url(#clipPath132)"
           id="g130">
          <g
             transform="translate(243.8784,776.5825)"
             id="g136">
            <path
               d="m 0,0 c -0.699,0 -1.342,-0.071 -1.966,-0.216 -3.4,-0.805 -5.936,-4.056 -5.9,-7.563 0,-0.061 0.007,-0.123 0.014,-0.185 0.016,-0.145 0.03,-0.27 -0.05,-0.376 l -0.029,-0.037 0.012,-0.046 0.04,-0.169 c 0.152,-0.633 0.307,-1.275 0.47,-1.907 l 0.008,-0.032 0.026,-0.02 c 0.129,-0.105 0.181,-0.257 0.236,-0.417 0.032,-0.095 0.065,-0.193 0.116,-0.286 1.366,-2.505 3.497,-3.888 6.335,-4.11 0.035,-0.002 0.069,-0.007 0.104,-0.011 0.055,-0.007 0.11,-0.013 0.164,-0.013 0.183,0 0.309,0.08 0.386,0.246 l 0.061,0.133 -0.145,0.009 c -3.628,0.235 -6.34,2.879 -6.596,6.429 -0.137,1.892 0.485,3.684 1.752,5.046 1.281,1.378 3.085,2.168 4.946,2.168 0.465,0 0.931,-0.05 1.385,-0.147 l 0.008,-0.01 C 1.614,-1.716 1.878,-1.743 2.134,-1.768 2.325,-1.787 2.504,-1.805 2.667,-1.889 3.483,-2.277 4.103,-2.68 4.621,-3.159 4.647,-3.186 4.687,-3.213 4.728,-3.241 4.772,-3.27 4.839,-3.314 4.841,-3.343 4.842,-3.35 4.84,-3.387 4.753,-3.467 4.698,-3.523 4.651,-3.552 4.618,-3.552 4.574,-3.552 4.52,-3.493 4.467,-3.437 4.451,-3.418 4.434,-3.4 4.417,-3.383 3.642,-2.608 2.642,-2.23 1.675,-1.865 L 1.607,-1.839 1.573,-1.827 1.539,-1.839 C 1.527,-1.843 1.516,-1.844 1.504,-1.846 1.482,-1.85 1.461,-1.854 1.44,-1.861 L 1.412,-1.871 1.393,-1.895 C 1.374,-1.92 1.357,-1.946 1.341,-1.971 1.33,-1.99 1.318,-2.009 1.304,-2.028 L 1.226,-2.131 1.345,-2.181 C 1.416,-2.21 1.483,-2.24 1.551,-2.27 1.61,-2.295 1.67,-2.321 1.731,-2.348 1.85,-2.398 1.97,-2.447 2.09,-2.495 2.643,-2.718 3.165,-2.929 3.56,-3.386 l 0.03,-0.034 0.021,0 0.005,-0.011 0.035,-0.014 C 3.792,-3.504 3.88,-3.573 3.937,-3.669 l 0.011,-0.019 0.019,-0.013 c 0.245,-0.168 0.616,-0.671 0.793,-0.948 1.226,-2.056 1.286,-4.078 0.175,-6.007 -1.088,-1.894 -2.772,-2.896 -4.869,-2.896 -0.158,0 -0.321,0.006 -0.484,0.017 -2.34,0.153 -4.044,1.378 -4.928,3.542 -0.963,2.327 -0.413,4.713 1.508,6.545 l 0.045,0.043 -0.019,0.06 c -0.012,0.039 -0.025,0.075 -0.039,0.112 l -0.028,0.079 -0.047,0.138 -0.112,-0.094 c -0.994,-0.834 -1.647,-1.756 -1.995,-2.819 -0.852,-2.569 -0.306,-4.883 1.579,-6.692 1.283,-1.228 2.735,-1.85 4.315,-1.85 0.764,0 1.557,0.149 2.356,0.444 1.898,0.707 3.327,2.185 3.919,4.054 0.6,1.893 0.276,3.954 -0.889,5.656 -0.023,0.032 -0.052,0.062 -0.083,0.091 -0.035,0.036 -0.084,0.083 -0.082,0.109 0.001,0.006 0.007,0.037 0.087,0.096 0.074,0.057 0.115,0.069 0.137,0.069 0.041,0 0.082,-0.05 0.145,-0.133 l 0.048,-0.062 c 1.131,-1.516 1.54,-3.505 1.119,-5.455 -0.426,-1.97 -1.64,-3.634 -3.33,-4.566 l -0.034,-0.019 -0.013,-0.036 c -0.02,-0.061 -0.005,-0.108 0.006,-0.139 l 0.022,-0.066 0.074,-0.017 0.03,-10e-4 c 0.313,0 0.547,0.155 0.775,0.305 l 0.084,0.056 c 1.714,1.095 2.894,2.795 3.322,4.788 0.429,2.002 0.049,4.049 -1.074,5.765 -0.209,0.314 -0.624,0.849 -0.844,1.07 C 4.915,-1.688 4,-1.057 2.844,-0.533 2.637,-0.435 2.42,-0.39 2.21,-0.347 1.959,-0.294 1.721,-0.246 1.517,-0.109 l -0.02,0.013 -0.024,0.003 C 0.939,-0.031 0.458,0 0,0 m 0,-0.1 c 0.485,0 0.971,-0.035 1.461,-0.092 0.398,-0.266 0.897,-0.222 1.342,-0.432 1.054,-0.478 1.986,-1.076 2.762,-1.909 0.222,-0.221 0.631,-0.753 0.831,-1.053 2.285,-3.494 1.288,-8.175 -2.218,-10.415 -0.249,-0.161 -0.486,-0.345 -0.805,-0.345 -0.009,0 -0.018,0 -0.027,10e-4 -0.01,0.033 -0.022,0.055 -0.01,0.09 3.582,1.973 4.668,6.92 2.241,10.171 -0.092,0.113 -0.158,0.231 -0.271,0.231 -0.053,0 -0.115,-0.024 -0.195,-0.087 -0.278,-0.2 -0.034,-0.312 0.054,-0.434 2.384,-3.483 0.976,-8.084 -2.983,-9.56 -0.795,-0.293 -1.571,-0.438 -2.321,-0.438 -1.551,0 -2.988,0.62 -4.246,1.823 -1.896,1.82 -2.384,4.083 -1.552,6.589 0.366,1.12 1.064,2.02 1.963,2.773 0.023,-0.066 0.046,-0.122 0.067,-0.188 -1.931,-1.842 -2.518,-4.271 -1.531,-6.655 0.91,-2.229 2.65,-3.45 5.013,-3.604 0.166,-0.012 0.33,-0.018 0.491,-0.018 2.152,0 3.852,1.026 4.956,2.946 1.174,2.04 1.02,4.103 -0.178,6.11 -0.155,0.245 -0.544,0.788 -0.821,0.977 -0.078,0.133 -0.2,0.21 -0.334,0.266 -0.01,0.022 -0.031,0.033 -0.053,0.033 -0.5,0.577 -1.199,0.778 -1.865,1.065 -0.132,0.055 -0.255,0.111 -0.387,0.167 0.033,0.044 0.054,0.088 0.088,0.132 0.033,0.011 0.067,0.011 0.1,0.023 0.998,-0.378 1.996,-0.744 2.774,-1.521 0.086,-0.087 0.164,-0.198 0.272,-0.198 0.057,0 0.123,0.031 0.203,0.111 0.29,0.267 -0.021,0.344 -0.132,0.455 -0.588,0.544 -1.253,0.942 -1.976,1.286 -0.41,0.211 -0.897,0.043 -1.264,0.355 -0.011,0.011 -0.022,0.032 -0.032,0.032 -0.479,0.106 -0.959,0.156 -1.433,0.156 -3.724,0 -7.102,-3.118 -6.797,-7.321 0.265,-3.681 3.072,-6.287 6.688,-6.522 -0.071,-0.153 -0.178,-0.188 -0.295,-0.188 -0.086,0 -0.176,0.018 -0.261,0.023 -2.817,0.222 -4.9,1.575 -6.254,4.059 -0.133,0.245 -0.144,0.544 -0.377,0.732 -0.177,0.687 -0.345,1.387 -0.51,2.074 0.143,0.19 0.056,0.412 0.056,0.622 -0.035,3.461 2.495,6.676 5.822,7.465 C -1.292,-0.162 -0.646,-0.1 0,-0.1"
               id="path138"
               style="fill:#ffffff;fill-opacity:1;fill-rule:nonzero;stroke:none" />
          </g>
        </g>
      </g>
      <g
         transform="translate(5.573222,-38.155135)"
         id="g140">
        <g
           clip-path="url(#clipPath144)"
           id="g142">
          <g
             id="g148">
            <g
               id="g150">
              <path
                 d="m 242.653,768.818 c 0,-0.559 0.453,-1.013 1.011,-1.013 l 0,0 c 0.559,0 1.013,0.454 1.013,1.013 l 0,0 c 0,0.559 -0.454,1.013 -1.013,1.013 l 0,0 c -0.558,0 -1.011,-0.454 -1.011,-1.013"
                 id="path166"
                 style="fill:url(#radialGradient3228);stroke:none" />
            </g>
          </g>
        </g>
      </g>
      <g
         transform="translate(249.23732,731.72616)"
         id="g176">
        <path
           d="m 0,0 c -0.585,0 -1.062,-0.477 -1.062,-1.063 0,-0.586 0.477,-1.063 1.062,-1.063 0.586,0 1.063,0.477 1.063,1.063 C 1.063,-0.477 0.586,0 0,0 m 0,-0.1 c 0.533,0 0.963,-0.431 0.963,-0.963 0,-0.532 -0.43,-0.963 -0.963,-0.963 -0.532,0 -0.962,0.431 -0.962,0.963 0,0.532 0.43,0.963 0.962,0.963"
           id="path178"
           style="fill:#ffffff;fill-opacity:1;fill-rule:nonzero;stroke:none" />
      </g>
      <g
         transform="translate(231.06642,721.77256)"
         id="g180">
        <path
           d="M 0,0 C 6.398,1.151 12.714,2.486 19.003,3.875 19.456,3.276 19.97,2.706 19.931,1.876 16.927,0.497 13.176,0.73 9.79,0.172 c 3.597,-1.081 7.407,-2.062 10.42,-1.509 5.509,1.009 3.049,5.66 1.173,8.912 -1.209,2.097 -2.608,4.655 -5.346,4.643 C 14.379,11.034 15.163,8.916 15.666,7.787 10.556,5.171 4.56,2.716 0,0 m 34.728,5.001 c -2.28,1.042 -0.1,5.425 -2.352,6.046 -1.68,0.459 -2.52,-2.395 -2.335,-4.133 C 30.833,-0.479 41.14,2.005 42.277,8.686 40.819,6.603 36.594,4.146 34.728,5.001 m -4.492,10.973 c -1.834,-4.605 4.989,-5.937 6.214,-2.261 0.632,1.9 -0.284,3.923 -3.271,4.096 -1.6,0.093 -2.513,-0.755 -2.943,-1.835 m -6.092,6.577 c -4.694,2.365 -8.154,-2.192 -8.702,-7.418 1.934,2.277 3.947,6.058 6.604,5.067 2.523,-0.94 1.51,-4.948 4.897,-5.309 2.678,2.633 -0.401,6.452 -2.799,7.66"
           id="path182"
           style="fill:#ffffff;fill-opacity:1;fill-rule:evenodd;stroke:none" />
      </g>
      <g
         transform="translate(258.00972,736.66326)"
         id="g184">
        <path
           d="m 0,0 c -3.388,0.361 -2.374,4.37 -4.897,5.31 -2.658,0.991 -4.67,-2.79 -6.604,-5.068 0.547,5.227 4.008,9.783 8.701,7.419 C -0.402,6.452 2.678,2.634 0,0"
           id="path186"
           style="fill:#bf1b2c;fill-opacity:1;fill-rule:evenodd;stroke:none" />
      </g>
      <g
         transform="translate(264.24512,739.58166)"
         id="g188">
        <path
           d="M 0,0 C 2.987,-0.173 3.903,-2.196 3.271,-4.096 2.046,-7.772 -4.777,-6.44 -2.943,-1.835 -2.513,-0.755 -1.6,0.093 0,0"
           id="path190"
           style="fill:#50ade5;fill-opacity:1;fill-rule:evenodd;stroke:none" />
      </g>
      <g
         transform="translate(273.34372,730.45866)"
         id="g192">
        <path
           d="m 0,0 c -1.138,-6.681 -11.444,-9.165 -12.236,-1.772 -0.185,1.738 0.655,4.592 2.335,4.133 C -7.649,1.74 -9.829,-2.643 -7.55,-3.685 -5.684,-4.54 -1.458,-2.083 0,0"
           id="path194"
           style="fill:#cce310;fill-opacity:1;fill-rule:evenodd;stroke:none" />
      </g>
      <g
         transform="translate(246.73242,729.55966)"
         id="g196">
        <path
           d="m 0,0 c -0.503,1.128 -1.287,3.247 0.371,4.431 2.738,0.012 4.137,-2.546 5.346,-4.643 1.876,-3.252 4.336,-7.903 -1.173,-8.913 -3.013,-0.552 -6.823,0.429 -10.42,1.51 3.386,0.558 7.137,0.325 10.141,1.704 0.039,0.829 -0.475,1.4 -0.928,1.999 C -2.952,-5.301 -9.268,-6.636 -15.666,-7.787 -11.106,-5.071 -5.11,-2.616 0,0"
           id="path198"
           style="fill:#f68712;fill-opacity:1;fill-rule:evenodd;stroke:none" />
      </g>
      <g
         transform="translate(246.73242,729.55966)"
         id="g200">
        <path
           d="m 0,0 c -0.503,1.128 -1.287,3.247 0.371,4.431 2.738,0.012 4.137,-2.546 5.346,-4.643 1.876,-3.252 4.336,-7.903 -1.173,-8.913 -3.013,-0.552 -6.823,0.429 -10.42,1.51 3.386,0.558 7.137,0.325 10.141,1.704 0.039,0.829 -0.475,1.4 -0.928,1.999 C -2.952,-5.301 -9.268,-6.636 -15.666,-7.787 -11.106,-5.071 -5.11,-2.616 0,0 z"
           id="path202"
           style="fill:none;stroke:#ffffff;stroke-width:0.1;stroke-linecap:butt;stroke-linejoin:miter;stroke-miterlimit:10;stroke-opacity:1;stroke-dasharray:none" />
      </g>
    </g>
  </g>
</svg>
